Un borghese piccolo piccolo [DVDRip-H264-Ita-Acp3-Sub/ita/Eng/Esp][Tntvillage.Scambioetico]




General
Complete name                    : C:\Un borghese piccolo piccolo [DVDRip-Ita-Ac3-Sub-Ita-Eng-Esp-Chapters][RiP By MaX].mkv
Format                           : Matroska
File size                        : 1.38 GiB
Duration                         : 1h 56mn
Overall bit rate                 : 1 688 Kbps
Encoded date                     : UTC 2010-10-26 10:16:01
Writing application              : mkvmerge v4.3.0 ('Escape from the Island') built on Sep  5 2010 10:30:51
Writing library                  : libebml v1.0.0 + libmatroska v1.0.0

Video
ID                               : 1
Format                           : AVC
Format/Info                      : Advanced Video Codec
Format profile                   : High@L4.1
Format settings, CABAC           : Yes
Format settings, ReFrames        : 4 frames
Muxing mode                      : Container profile=Unknown@4.1
Codec ID                         : V_MPEG4/ISO/AVC
Duration                         : 1h 56mn
Bit rate                         : 1 285 Kbps
Width                            : 656 pixels
Height                           : 352 pixels
Display aspect ratio             : 1.864
Frame rate                       : 25.000 fps
Color space                      : YUV
Chroma subsampling               : 4:2:0
Bit depth                        : 8 bits
Scan type                        : Progressive
Bits/(Pixel*Frame)               : 0.223
Stream size                      : 1.04 GiB (75%)
Title                            : Un borghese piccolo piccolo [DVDRip][RiP By MaX]
Writing library                  : x264 core 107 r1745 4785e8e
Encoding settings                : cabac=1 / ref=3 / deblock=1:0:0 / analyse=0x3:0x133 / me=hex / subme=7 / psy=1 / psy_rd=1.00:0.00 / mixed_ref=1 / me_range=16 / chroma_me=1 / trellis=1 / 8x8dct=1 / cqm=0 / deadzone=21,11 / fast_pskip=1 / chroma_qp_offset=-2 / threads=6 / sliced_threads=0 / nr=0 / decimate=1 / interlaced=0 / constrained_intra=0 / bframes=2 / b_pyramid=2 / b_adapt=2 / b_bias=0 / direct=1 / weightb=1 / open_gop=0 / weightp=2 / keyint=250 / keyint_min=25 / scenecut=40 / intra_refresh=0 / rc_lookahead=40 / rc=2pass / mbtree=1 / bitrate=1285 / ratetol=1.0 / qcomp=0.60 / qpmin=10 / qpmax=51 / qpstep=4 / cplxblur=20.0 / qblur=0.5 / vbv_maxrate=50000 / vbv_bufsize=50000 / ip_ratio=1.40 / aq=1:1.00 / nal_hrd=none
Language                         : Italian

Audio
ID                               : 2
Format                           : AC-3
Format/Info                      : Audio Coding 3
Mode extension                   : CM (complete main)
Codec ID                         : A_AC3
Duration                         : 1h 56mn
Bit rate mode                    : Constant
Bit rate                         : 384 Kbps
Channel(s)                       : 6 channels
Channel positions                : Front: L C R, Side: L R, LFE
Sampling rate                    : 48.0 KHz
Bit depth                        : 16 bits
Stream size                      : 321 MiB (23%)
Title                            : Ita Ac3 5.1
Language                         : Italian

Text #1
ID                               : 3
Format                           : VobSub
Codec ID                         : S_VOBSUB
Codec ID/Info                    : The same subtitle format used on DVDs
Title                            : Sub Ita
Language                         : Italian

Text #2
ID                               : 4
Format                           : VobSub
Codec ID                         : S_VOBSUB
Codec ID/Info                    : The same subtitle format used on DVDs
Title                            : Sub Ita NU
Language                         : Italian

Text #3
ID                               : 5
Format                           : VobSub
Codec ID                         : S_VOBSUB
Codec ID/Info                    : The same subtitle format used on DVDs
Title                            : Sub Eng

Text #4
ID                               : 6
Format                           : VobSub
Codec ID                         : S_VOBSUB
Codec ID/Info                    : The same subtitle format used on DVDs
Title                            : Sub Esp
Language                         : Spanish

Menu
00:00:00.000                     : it:Titoli di testa
00:01:41.000                     : it:Rag. Mario Vivaldi
00:07:04.000                     : it:Amalia
00:12:22.000                     : it:Il Ministero
00:18:20.000                     : it:Il Dott. Spaziani
00:25:12.000                     : it:Comprovanza
00:29:21.000                     : it:Il Regalo
00:33:00.000                     : it:La Massoneria
00:39:05.000                     : it:Rito Massonico
00:49:58.000                     : it:La Raccomandata
00:56:27.000                     : it:Il giorno del concorso
01:01:09.000                     : it:La rapina
01:08:07.000                     : :In questura
01:15:14.000                     : it:L'assassino
01:22:49.000                     : it:Sequestro
01:32:36.000                     : it:Giovanni Vivaldi
01:38:14.000                     : it:"Non puoi scappare"
01:45:18.000                     : it:"È morto"
01:47:08.000                     : it:La pensione
01:51:44.000                     : it:Operazione
01:52:54.000                     : it:Un tipo pericoloso